# xmcd
#
# Track frame offsets:
# 150
# 18497
# 33227
# 50107
# 64380
#
# Disc length: 1098 seconds
#
#
# Revision: 0
# Processed by: cddbd v1.5.1PL0 Copyright (c) Steve Scherf et al.
# Submitted via: FreeRIP 2.70 
#
DISCID=42044805
DTITLE=Collections - Country Bonus CD Sampler
DYEAR=2004
DGENRE=Country
TTITLE0=The Love Song - Jeff Bates
TTITLE1=Barbed Wire And Roses - Pinmonkey
TTITLE2=Texas Plates - Kellie Coffey
TTITLE3=Days Like This - Rachel Proctor
TTITLE4=Be Still - Andy Griggs
EXTD=Entered By Itaot...
EXTT0=
EXTT1=
EXTT2=
EXTT3=
EXTT4=
PLAYORDER=
